:SAMPLES-PER-SECOND 30
:FULLY-SPECIFIED
:DEGREES
611
root  -19.8434 33.796 31.8594 -178.006 -51.955 -178.396
RightUpLeg  -10.972 -16.4649 -9.95992
RightLeg  16.0722 1.44045 0.316004
RightFoot  2.27691 0.00638767 0.190349
RightToes  -46.6481 -0.273648 -0.349515
Spine  -1.54723 0.131519 -1.29144
Spine1  -2.95269 0.497559 -2.16621
HEad  -42.968 14.6512 -2.33695
LeftShoulder1  -1.94126e-019 -3.10601e-018 -2.51263e-017
LeftArm  -16.4451 -16.604 -45.0358
LeftForeArm  34.7571 -52.6237 -11.9798
LeftHand  -0.632462 -4.58734 7.64415
RightShoulder  -4.96962e-017 0 -2.36833e-017
RightArm  -34.5504 -26.541 68.1786
RightForeArm  60.644 7.72116 1.31308
RightHand  -0.249105 -1.45755 -7.20836
LeftUpLeg  -8.46048 8.21516 5.00339
LeftLeg  26.7277 12.4705 5.24481
LeftFoot  -5.31124 -0.0603061 -1.13859
LeftToes  -27.7623 2.32378e-006 -5.43956e-008
612
root  -20.1248 33.835 32.301 -177.859 -51.1125 -178.463
RightUpLeg  -10.5358 -14.403 -10.5447
RightLeg  14.4987 0.513087 0.0981445
RightFoot  1.19878 0.00375975 0.141425
RightToes  -44.7135 -0.257189 -0.34017
Spine  -1.61103 0.261548 -1.31936
Spine1  -3.08419 0.692246 -2.21634
HEad  -44.6142 14.3531 -3.18747
LeftShoulder1  -1.94126e-019 -3.10601e-018 -2.51263e-017
LeftArm  -15.9251 -10.2312 -49.5418
LeftForeArm  36.4237 -58.554 -15.2486
LeftHand  -0.714229 -4.54632 8.62512
RightShoulder  -4.96962e-017 0 -2.36833e-017
RightArm  -33.1131 -27.752 68.5392
RightForeArm  65.7939 7.2757 1.22447
RightHand  -0.297262 -0.0712833 -6.51928
LeftUpLeg  -8.47313 7.20632 3.68682
LeftLeg  26.7331 14.7969 6.19862
LeftFoot  -6.05025 -0.0938677 -1.6145
LeftToes  -26.8328 2.32378e-006 -5.43956e-008
613
root  -20.3502 33.9031 32.6508 -177.859 -49.2335 -178.174
RightUpLeg  -10.1541 -10.3054 -10.5246
RightLeg  12.214 -0.949788 -0.141726
RightFoot  -0.272772 -0.00133843 0.140597
RightToes  -41.2908 -0.228876 -0.322297
Spine  -1.71325 0.44298 -1.42992
Spine1  -3.30838 0.976392 -2.41812
HEad  -45.8072 13.87 -2.30586
LeftShoulder1  -1.94126e-019 -3.10601e-018 -2.51263e-017
LeftArm  -14.9413 -1.92425 -53.6678
LeftForeArm  37.2419 -62.916 -18.6447
LeftHand  -0.878069 -3.66507 11.4973
RightShoulder  -4.96962e-017 0 -2.36833e-017
RightArm  -33.7751 -28.3654 69.7667
RightForeArm  66.5168 7.30478 1.22825
RightHand  -0.287883 -0.365143 -6.65209
LeftUpLeg  -8.05337 6.99948 2.9957
LeftLeg  26.324 16.5284 6.76376
LeftFoot  -6.45207 -0.119813 -1.96388
LeftToes  -21.754 2.32378e-006 -5.43956e-008
614
root  -20.5922 33.9939 32.9714 -177.721 -47.2769 -178.071
RightUpLeg  -9.82939 -7.37173 -10.6449
RightLeg  10.0301 -0.738162 -0.0810649
RightFoot  -1.64758 -0.00942181 0.162609
RightToes  -38.7098 -0.20826 -0.307719
Spine  -1.81674 0.398073 -1.5224
Spine1  -3.55315 0.810248 -2.52638
HEad  -46.2581 14.0584 -1.50245
LeftShoulder1  -1.94126e-019 -3.10601e-018 -2.51263e-017
LeftArm  -13.3428 7.20347 -57.6779
LeftForeArm  35.7665 -63.4895 -19.3547
LeftHand  -0.942394 -2.19508 14.5894
RightShoulder  -4.96962e-017 0 -2.36833e-017
RightArm  -35.2498 -28.1762 70.8907
RightForeArm  64.8858 7.44544 1.25698
RightHand  -0.280563 -0.707275 -6.91805
LeftUpLeg  -7.34508 8.64372 2.29318
LeftLeg  24.8166 17.4584 6.61182
LeftFoot  -6.3783 -0.12256 -2.03778
LeftToes  -23.1382 2.32378e-006 -5.43956e-008
615
root  -20.8718 34.0604 33.3031 -177.387 -45.7445 -178.336
RightUpLeg  -9.8484 -7.47162 -11.1862
RightLeg  8.87642 0.931098 0.0856978
RightFoot  -2.38135 -0.00934714 0.102401
RightToes  -38.0049 -0.202744 -0.303577
Spine  -1.89629 0.176687 -1.62023
Spine1  -3.75031 0.309713 -2.64155
HEad  -45.8237 14.989 -1.20156
LeftShoulder1  -1.94126e-019 -3.10601e-018 -2.51263e-017
LeftArm  -12.3484 15.0359 -62.1253
LeftForeArm  33.0971 -58.2165 -15.301
LeftHand  -0.912033 -1.82328 14.8286
RightShoulder  -4.96962e-017 0 -2.36833e-017
RightArm  -35.0159 -27.7171 71.7424
RightForeArm  62.6194 8.41479 1.41015
RightHand  -0.270026 -0.714833 -6.66509
LeftUpLeg  -6.36555 8.13997 1.20741
LeftLeg  23.2173 19.0293 6.59592
LeftFoot  -6.64013 -0.14352 -2.31205
LeftToes  -20.0957 2.32378e-006 -5.43956e-008
616
root  -21.0811 34.1288 33.5524 -177.452 -44.0815 -178.088
RightUpLeg  -10.1925 -8.12077 -11.1301
RightLeg  8.53359 0.439028 0.0383506
RightFoot  -1.96032 -0.0072593 0.136288
RightToes  -34.1945 -0.173846 -0.280036
Spine  -1.8815 0.0580193 -1.53117
Spine1  -3.75691 0.0477634 -2.39471
HEad  -44.7493 16.5077 -1.22072
LeftShoulder1  -1.94126e-019 -3.10601e-018 -2.51263e-017
LeftArm  -11.1925 20.1327 -66.8605
LeftForeArm  27.1972 -46.5914 -9.89121
LeftHand  -0.765782 -1.28604 13.4573
RightShoulder  -4.96962e-017 0 -2.36833e-017
RightArm  -33.2372 -27.0461 72.5441
RightForeArm  61.0885 10.1198 1.53658
RightHand  -0.290039 -0.140327 -6.43763
LeftUpLeg  -5.67954 8.78775 0.658204
LeftLeg  21.8902 20.594 6.59706
LeftFoot  -6.25486 -0.13718 -2.34872
LeftToes  -20.1354 2.32378e-006 -5.43956e-008
617
root  -21.2162 34.1799 33.7551 -177.357 -42.3814 -178.044
RightUpLeg  -11.1064 -12.4527 -10.531
RightLeg  9.21294 1.06716 0.104365
RightFoot  2.83125 0.00790355 0.196495
RightToes  -38.5537 -0.207034 -0.306808
Spine  -1.78735 0.0797717 -1.63917
Spine1  -3.59477 0.0866879 -2.54495
HEad  -43.2567 18.0644 -0.426551
LeftShoulder1  -1.94126e-019 -3.10601e-018 -2.51263e-017
LeftArm  -10.2798 22.5705 -71.1124
LeftForeArm  22.0537 -30.6253 -5.42064
LeftHand  -0.344967 -1.35375 6.093
RightShoulder  -4.96962e-017 0 -2.36833e-017
RightArm  -30.0266 -26.4226 73.9193
RightForeArm  58.766 12.2257 1.45367
RightHand  -0.324343 0.254751 -6.73251
LeftUpLeg  -5.0609 9.49167 0.16561
LeftLeg  20.6766 21.8964 6.49967
LeftFoot  -6.04241 -0.135266 -2.40088
LeftToes  -17.4152 2.32378e-006 -5.43956e-008
618
root  -21.2988 34.1921 33.8972 -177.436 -40.8958 -177.816
RightUpLeg  -12.4828 -20.6265 -8.73803
RightLeg  11.3012 5.09705 0.681989
RightFoot  10.6737 -0.0523615 1.06701
RightToes  -44.9252 -0.258975 -0.34122
Spine  -1.63439 0.169349 -1.91413
Spine1  -3.30195 0.269893 -3.03939
HEad  -41.7776 18.9917 1.90651
LeftShoulder1  -1.94126e-019 -3.10601e-018 -2.51263e-017
LeftArm  -12.0193 24.3679 -74.8408
LeftForeArm  24.399 -13.7357 -2.2716
LeftHand  0.00104273 -1.84384 0.144566
RightShoulder  -4.96962e-017 0 -2.36833e-017
RightArm  -26.3732 -25.9754 75.6589
RightForeArm  55.9015 15.1112 1.36374
RightHand  -0.347709 0.504768 -6.9311
LeftUpLeg  -4.92647 10.8851 0.0790686
LeftLeg  20.3872 21.8954 6.38311
LeftFoot  -6.37133 -0.149361 -2.52149
LeftToes  -18.229 2.32378e-006 -5.43956e-008
619
root  -21.2551 34.1139 34.0003 -177.552 -39.7818 -176.597
RightUpLeg  -14.6867 -25.2692 -5.86352
RightLeg  14.7339 8.74272 1.70173
RightFoot  13.5314 -0.205138 2.21491
RightToes  -35.8947 -0.186547 -0.290777
Spine  -1.79303 0.234192 -2.08332
Spine1  -3.62133 0.497114 -3.38225
HEad  -40.967 19.7147 5.5814
LeftShoulder1  -1.94126e-019 -3.10601e-018 -2.51263e-017
LeftArm  -14.8138 29.0698 -77.2223
LeftForeArm  33.6527 -8.57075 -1.52436
LeftHand  0.172621 -2.75803 -2.25161
RightShoulder  -4.96962e-017 0 -2.36833e-017
RightArm  -23.6629 -25.8505 77.2834
RightForeArm  54.2227 18.3344 1.49893
RightHand  -0.353977 0.878184 -6.66694
LeftUpLeg  -6.88383 12.0163 0.8382
LeftLeg  23.1526 21.7376 7.45657
LeftFoot  -7.2563 -0.194645 -2.90742
LeftToes  -16.6728 2.32378e-006 -5.43956e-008
620
root  -21.2177 34.0541 34.0632 -177.321 -38.7987 -175.797
RightUpLeg  -15.8341 -26.1261 -3.74268
RightLeg  16.0453 9.0714 1.98023
RightFoot  10.9612 -0.138821 1.92885
RightToes  -31.2315 -0.152493 -0.260434
Spine  -2.01499 0.451467 -2.24847
Spine1  -4.03188 1.15953 -3.83652
HEad  -42.094 20.0298 8.60536
LeftShoulder1  -1.94126e-019 -3.10601e-018 -2.51263e-017
LeftArm  -16.532 33.8536 -79.1569
LeftForeArm  34.8942 -6.29845 -1.12072
LeftHand  0.198663 -2.27309 -2.83141
RightShoulder  -4.96962e-017 0 -2.36833e-017
RightArm  -22.6067 -26.0012 78.6742
RightForeArm  54.0175 21.6695 1.97255
RightHand  -0.343778 1.20124 -6.18747
LeftUpLeg  -8.39072 12.7138 1.32699
LeftLeg  24.9934 21.2895 8.05852
LeftFoot  -8.29624 -0.250928 -3.29725
LeftToes  -14.9532 2.32378e-006 -5.43956e-008
621
root  -21.2417 34.0483 34.0589 -177.03 -37.9718 -175.668
RightUpLeg  -16.0625 -26.3227 -2.5806
RightLeg  15.6189 5.87984 1.24086
RightFoot  10.445 -0.0725391 1.29247
RightToes  -29.389 -0.139736 -0.247697
Spine  -2.19004 0.912691 -2.48186
Spine1  -4.35729 2.36215 -4.47431
HEad  -44.0078 19.4013 10.3736
LeftShoulder1  -1.94126e-019 -3.10601e-018 -2.51263e-017
LeftArm  -18.1891 38.8361 -80.1596
LeftForeArm  35.959 -5.84469 -1.0289
LeftHand  -0.0462694 -2.28659 0.890537
RightShoulder  -4.96962e-017 0 -2.36833e-017
RightArm  -22.9499 -26.6872 79.9344
RightForeArm  54.4022 24.7814 2.56397
RightHand  -0.359846 1.42404 -6.27747
LeftUpLeg  -8.85399 13.6905 1.28444
LeftLeg  25.3285 21.703 8.34572
LeftFoot  -8.0458 -0.240484 -3.25685
LeftToes  -15.9895 2.32378e-006 -5.43956e-008
